<?xml version="1.0" standalone="no"?>
<!DOCTYPE svg PUBLIC "-//W3C//DTD SVG 20010904//EN"
 "http://www.w3.org/TR/2001/REC-SVG-20010904/DTD/svg10.dtd">
<svg version="1.0" xmlns="http://www.w3.org/2000/svg"
 width="128.000000pt" height="128.000000pt" viewBox="0 0 128.000000 128.000000"
 preserveAspectRatio="xMidYMid meet">
<metadata>
Created by potrace 1.14, written by Peter Selinger 2001-2017
</metadata>
<g transform="translate(0.000000,128.000000) scale(0.100000,-0.100000)"
fill="#000000" stroke="none">
<path d="M593 1102 c-18 -20 -33 -43 -33 -49 0 -7 -3 -13 -8 -13 -7 0 -20 -26
-42 -85 -42 -110 -4 -244 104 -370 l26 -30 39 45 c92 104 129 234 97 342 -16
57 -91 179 -113 186 -9 2 -12 -39 -12 -168 0 -95 -2 -175 -5 -178 -15 -14 -18
19 -17 182 0 97 -1 176 -2 175 -1 0 -17 -17 -34 -37z"/>
<path d="M194 852 c83 -84 123 -131 115 -135 -8 -3 -64 45 -138 117 l-123 121
6 -62 c17 -181 120 -291 306 -325 100 -18 110 -15 110 31 0 48 -24 141 -50
192 -55 107 -160 172 -300 185 l-55 6 129 -130z"/>
<path d="M1083 964 c-165 -48 -257 -169 -266 -349 -2 -50 -2 -50 31 -53 57 -6
189 34 241 72 74 55 127 150 137 246 3 25 7 51 9 58 10 28 -18 6 -130 -108
-66 -66 -123 -120 -127 -120 -24 0 5 37 115 148 l122 123 -46 -3 c-26 -2 -64
-8 -86 -14z"/>
<path d="M479 472 l-167 -2 4 -42 c15 -147 154 -276 307 -282 175 -8 320 110
343 279 l6 44 -164 3 c-90 2 -238 2 -329 0z"/>
</g>
</svg>
